<?xml version="1.0" standalone="no"?>
<!DOCTYPE svg PUBLIC "-//W3C//DTD SVG 20010904//EN"
 "http://www.w3.org/TR/2001/REC-SVG-20010904/DTD/svg10.dtd">
<svg version="1.0" xmlns="http://www.w3.org/2000/svg"
 width="260.000000pt" height="260.000000pt" viewBox="0 0 260.000000 260.000000"
 preserveAspectRatio="xMidYMid meet">
<metadata>
Created by potrace 1.11, written by Peter Selinger 2001-2013
</metadata>
<g transform="translate(0.000000,260.000000) scale(0.100000,-0.100000)"
fill="#000000" stroke="none">
<path d="M1860 1955 c-30 -7 -55 -13 -55 -13 0 0 -20 -6 -45 -13 -79 -24 -161
-72 -253 -149 -53 -44 -133 -170 -161 -252 -27 -82 -31 -110 -30 -238 1 -107
5 -137 28 -207 94 -288 359 -459 696 -449 63 2 129 7 145 10 114 24 256 82
321 131 l30 23 0 259 -1 258 -85 5 c-47 3 -107 3 -135 0 l-50 -5 -1 -176 c0
-97 -4 -184 -7 -192 -10 -26 -132 -58 -223 -59 -128 0 -212 31 -297 110 -163
153 -166 441 -7 600 72 73 176 113 294 114 124 1 225 -35 306 -108 l39 -36 58
54 c31 29 75 69 96 89 l39 37 -39 37 c-86 84 -187 136 -321 165 -98 21 -262
24 -342 5z"/>
<path d="M40 1301 l0 -651 150 0 150 0 0 180 0 180 168 1 c202 0 236 4 332 36
166 54 275 168 309 323 15 69 6 216 -17 277 -52 137 -167 232 -337 279 -49 14
-122 18 -407 21 l-348 5 0 -651z m610 395 c124 -13 198 -86 204 -199 5 -106
-33 -174 -123 -215 -52 -24 -67 -26 -223 -27 l-168 -2 0 223 c0 200 2 223 17
226 29 5 225 1 293 -6z"/>
</g>
</svg>
