<?xml version="1.0" standalone="no"?>
<!DOCTYPE svg PUBLIC "-//W3C//DTD SVG 20010904//EN"
 "http://www.w3.org/TR/2001/REC-SVG-20010904/DTD/svg10.dtd">
<svg version="1.0" xmlns="http://www.w3.org/2000/svg"
 width="260.000000pt" height="260.000000pt" viewBox="0 0 260.000000 260.000000"
 preserveAspectRatio="xMidYMid meet">
<metadata>
Created by potrace 1.11, written by Peter Selinger 2001-2013
</metadata>
<g transform="translate(0.000000,260.000000) scale(0.100000,-0.100000)"
fill="#000000" stroke="none">
<path d="M1946 2497 c-51 -62 -112 -171 -147 -262 -125 -321 -81 -680 124
-1003 21 -35 41 -61 43 -60 2 2 11 55 20 118 26 185 100 450 124 450 13 0 50
-126 50 -171 0 -58 17 -47 39 24 36 119 44 181 38 329 -6 171 -32 272 -106
413 -50 95 -125 205 -141 205 -5 0 -24 -19 -44 -43z"/>
<path d="M888 2143 c9 -87 50 -231 91 -318 119 -255 303 -427 573 -539 83 -35
286 -92 294 -83 3 2 -32 53 -76 112 -118 158 -243 375 -226 392 7 8 107 -45
149 -79 21 -16 41 -28 43 -25 7 6 -40 99 -79 157 -116 172 -304 312 -507 378
-77 26 -200 52 -239 52 -28 0 -28 -1 -23 -47z"/>
<path d="M840 1399 c-85 -15 -240 -71 -322 -118 -90 -52 -168 -108 -168 -121
0 -19 126 -103 227 -152 299 -144 636 -142 949 6 92 44 209 114 202 121 -2 2
-53 11 -113 20 -199 29 -455 99 -455 125 0 13 89 40 153 47 31 3 57 9 57 12 0
10 -123 48 -194 60 -70 13 -258 12 -336 0z"/>
<path d="M1655 964 c-134 -103 -323 -217 -421 -254 -22 -9 -23 -8 -14 15 17
44 38 81 75 129 19 25 30 46 25 46 -22 0 -138 -64 -202 -112 -121 -89 -229
-222 -294 -363 -41 -89 -80 -223 -90 -306 l-7 -62 69 6 c144 12 349 92 477
185 166 120 291 279 370 472 46 111 95 290 80 290 -5 0 -35 -21 -68 -46z"/>
</g>
</svg>
