<svg xmlns="http://www.w3.org/2000/svg" viewBox="0 0 491 148.07"><defs><style>.cls-1{fill:#00525f;}.cls-2{fill:#aec22e;}</style></defs><title>Recurso 1</title><g id="Capa_2" data-name="Capa 2"><g id="Capa_1-2" data-name="Capa 1"><path class="cls-1" d="M308.71,111.33h12.74v34.88l-4.31-.89v-2.25a12.77,12.77,0,0,1-21.16-9.6V90.86a12.74,12.74,0,1,1,25.47,0V98.7l-5.09.58V90.86a7.65,7.65,0,0,0-15.29,0v42.61a7.65,7.65,0,0,0,15.29,0v-17h-7.65Z"/><path class="cls-1" d="M358.69,145.23H353.6V123.28a8.57,8.57,0,0,0-8.62-8.62H338.8v30.57h-5.09V79.1H345a13.75,13.75,0,0,1,13.71,13.72V101a13.82,13.82,0,0,1-5.78,11.17,13.93,13.93,0,0,1,5.78,11.16ZM345,109.57A8.57,8.57,0,0,0,353.6,101V92.82A8.57,8.57,0,0,0,345,84.2H338.8v25.37Z"/><path class="cls-1" d="M376,84.2v25.37H387.8v5.19H376v25.37H392.8v5.1H370.86V79.1H392v5.1Z"/><path class="cls-1" d="M409.45,84.2v25.37H421.3v5.19H409.45v25.37H426.3v5.1H404.35V79.1h21.16v5.1Z"/><path class="cls-1" d="M437.6,79.1h6.17l15.58,50.16h.19V79.1h5.1v66.13h-5.1l-16.65-52.9h-.2v52.9H437.6Z"/><path class="cls-1" d="M11.38,60.12v46.4H3.17V0H21.32A22.15,22.15,0,0,1,43.41,22.09V38A22.15,22.15,0,0,1,21.32,60.12Zm9.94-8.2A13.82,13.82,0,0,0,35.21,38V22.09A13.81,13.81,0,0,0,21.32,8.21H11.38V51.92Z"/><path class="cls-1" d="M105.59,0V87.58a20.52,20.52,0,1,1-41,0V0h8.2V87.58a12.31,12.31,0,0,0,24.62,0V0Z"/><path class="cls-1" d="M130.49,0h9.94l25.09,80.8h.32V0H174V106.52h-8.2L139,21.3h-.31v85.22h-8.21Z"/><path class="cls-1" d="M235.64,9H221v98.32h-8.36V9H197.77V.79h37.87Z"/><path class="cls-1" d="M277.45,75.05l5.21,32.26h8.21l-4.54-29.53A16.8,16.8,0,0,1,277.45,75.05Z"/><path class="cls-1" d="M284.07,59c-3.15-20.65-6.3-37.52-9.45-58.17H260.73L244.48,107.31h8.2l4.1-27.3,1.27-8.21,9.46-61.86h.32c2.62,17.17,5.23,30.54,7.85,47.7a13.84,13.84,0,0,1,5,.18A10.91,10.91,0,0,1,284.07,59Z"/><path class="cls-2" d="M266.25,48.67c0,12.84,12.66,12.84,12.66,12.84s12.66,0,12.66,12.66a22.18,22.18,0,0,1-8.46-.79,23.11,23.11,0,0,1-12-8.74A27.57,27.57,0,0,1,266.25,48.67Z"/><polygon class="cls-2" points="491 135.38 489.21 135.38 489.21 36.8 315.86 36.8 315.86 35.01 491 35.01 491 135.38"/><rect class="cls-2" y="146.28" width="270.76" height="1.79"/></g></g></svg>